KarlaLatin-Light.ufo
<glyph name="exclam" format="2">
  <advance width="262"/>
  <unicode hex="0021"/>
  <outline>
    <contour>
      <point x="119" y="131" type="line"/>
      <point x="143" y="131" type="line"/>
      <point x="149" y="589" type="line"/>
      <point x="113" y="589" type="line"/>
    </contour>
    <contour>
      <point x="97" y="23" type="line"/>
      <point x="97" y="6"/>
      <point x="112" y="-9"/>
      <point x="130" y="-9" type="curve" smooth="yes"/>
      <point x="149" y="-9"/>
      <point x="165" y="6"/>
      <point x="165" y="23" type="curve" smooth="yes"/>
      <point x="165" y="41"/>
      <point x="149" y="57"/>
      <point x="130" y="57" type="curve" smooth="yes"/>
      <point x="112" y="57"/>
      <point x="97" y="41"/>
      <point x="97" y="23" type="curve" smooth="yes"/>
    </contour>
  </outline>
</glyph>
<glyph name="numbersign" format="2">
  <advance width="572"/>
  <unicode hex="0023"/>
  <outline>
    <contour>
      <point x="141" y="29" type="line"/>
      <point x="175" y="29" type="line"/>
      <point x="233" y="578" type="line"/>
      <point x="199" y="578" type="line"/>
    </contour>
    <contour>
      <point x="347" y="29" type="line"/>
      <point x="382" y="29" type="line"/>
      <point x="440" y="578" type="line"/>
      <point x="406" y="578" type="line"/>
    </contour>
    <contour>
      <point x="72" y="405" type="line"/>
      <point x="532" y="405" type="line"/>
      <point x="536" y="433" type="line"/>
      <point x="75" y="433" type="line"/>
    </contour>
    <contour>
      <point x="49" y="177" type="line"/>
      <point x="508" y="177" type="line"/>
      <point x="512" y="205" type="line"/>
      <point x="52" y="205" type="line"/>
    </contour>
  </outline>
</glyph>
<glyph name="dollar" format="2">
  <advance width="571"/>
  <unicode hex="0024"/>
  <outline>
    <contour>
      <point x="286" y="615" type="line"/>
      <point x="396" y="615"/>
      <point x="463" y="560"/>
      <point x="474" y="482" type="curve"/>
      <point x="437" y="482" type="line"/>
      <point x="426" y="547"/>
      <point x="373" y="581"/>
      <point x="286" y="581" type="curve" smooth="yes"/>
      <point x="187" y="581"/>
      <point x="131" y="531"/>
      <point x="131" y="460" type="curve" smooth="yes"/>
      <point x="131" y="403"/>
      <point x="163" y="373"/>
      <point x="236" y="351" type="curve" smooth="yes"/>
      <point x="281" y="338" type="line"/>
      <point x="281" y="301" type="line"/>
      <point x="253" y="310" type="line" smooth="yes"/>
      <point x="145" y="343"/>
      <point x="92" y="380"/>
      <point x="92" y="463" type="curve" smooth="yes"/>
      <point x="92" y="552"/>
      <point x="159" y="615"/>
      <point x="286" y="615" type="curve" smooth="yes"/>
    </contour>
    <contour>
      <point x="266" y="686" type="line"/>
      <point x="303" y="686" type="line"/>
      <point x="303" y="-81" type="line"/>
      <point x="266" y="-81" type="line"/>
    </contour>
    <contour>
      <point x="355" y="316" type="line"/>
      <point x="437" y="292"/>
      <point x="498" y="244"/>
      <point x="498" y="157" type="curve" smooth="yes"/>
      <point x="498" y="74"/>
      <point x="425" y="-9"/>
      <point x="284" y="-9" type="curve" smooth="yes"/>
      <point x="168" y="-9"/>
      <point x="73" y="60"/>
      <point x="73" y="173" type="curve"/>
      <point x="109" y="173" type="line"/>
      <point x="109" y="72"/>
      <point x="190" y="26"/>
      <point x="284" y="26" type="curve" smooth="yes"/>
      <point x="394" y="26"/>
      <point x="457" y="91"/>
      <point x="457" y="157" type="curve" smooth="yes"/>
      <point x="457" y="220"/>
      <point x="416" y="261"/>
      <point x="346" y="282" type="curve" smooth="yes"/>
      <point x="289" y="299" type="line"/>
      <point x="289" y="335" type="line"/>
    </contour>
  </outline>
</glyph>
<glyph name="quotesingle" format="2">
  <advance width="90"/>
  <unicode hex="0027"/>
  <outline>
    <contour>
      <point x="24" y="677" type="line"/>
      <point x="30" y="476" type="line"/>
      <point x="60" y="476" type="line"/>
      <point x="66" y="677" type="line"/>
    </contour>
  </outline>
</glyph>
<glyph name="parenleft" format="2">
  <advance width="310"/>
  <unicode hex="0028"/>
  <outline>
    <contour>
      <point x="259" y="700" type="line"/>
      <point x="143" y="589"/>
      <point x="73" y="440"/>
      <point x="73" y="295" type="curve" smooth="yes"/>
      <point x="73" y="151"/>
      <point x="143" y="1"/>
      <point x="259" y="-109" type="curve"/>
      <point x="286" y="-92" type="line"/>
      <point x="174" y="18"/>
      <point x="113" y="162"/>
      <point x="113" y="295" type="curve" smooth="yes"/>
      <point x="113" y="429"/>
      <point x="174" y="572"/>
      <point x="286" y="683" type="curve"/>
    </contour>
  </outline>
</glyph>
<glyph name="comma" format="2">
  <advance width="164"/>
  <unicode hex="002C"/>
  <outline>
    <contour>
      <point x="55" y="26" type="line"/>
      <point x="55" y="6"/>
      <point x="70" y="-6"/>
      <point x="92" y="-6" type="curve"/>
      <point x="87" y="-35"/>
      <point x="68" y="-52"/>
      <point x="36" y="-68" type="curve"/>
      <point x="66" y="-81" type="line"/>
      <point x="111" y="-58"/>
      <point x="128" y="-22"/>
      <point x="128" y="9" type="curve" smooth="yes"/>
      <point x="128" y="36"/>
      <point x="109" y="57"/>
      <point x="86" y="57" type="curve" smooth="yes"/>
      <point x="66" y="57"/>
      <point x="55" y="41"/>
      <point x="55" y="26" type="curve" smooth="yes"/>
    </contour>
  </outline>
</glyph>
<glyph name="period" format="2">
  <advance width="141"/>
  <unicode hex="002E"/>
  <outline>
    <contour>
      <point x="36" y="23" type="curve" smooth="yes"/>
      <point x="36" y="6"/>
      <point x="51" y="-9"/>
      <point x="69" y="-9" type="curve" smooth="yes"/>
      <point x="89" y="-9"/>
      <point x="104" y="6"/>
      <point x="104" y="23" type="curve" smooth="yes"/>
      <point x="104" y="41"/>
      <point x="89" y="57"/>
      <point x="69" y="57" type="curve" smooth="yes"/>
      <point x="51" y="57"/>
      <point x="36" y="41"/>
    </contour>
  </outline>
</glyph>
<glyph name="zero" format="2">
  <advance width="554"/>
  <unicode hex="0030"/>
  <outline>
    <contour>
      <point x="277" y="616" type="line"/>
      <point x="141" y="616"/>
      <point x="55" y="510"/>
      <point x="55" y="304" type="curve" smooth="yes"/>
      <point x="55" y="97"/>
      <point x="141" y="-9"/>
      <point x="277" y="-9" type="curve" smooth="yes"/>
      <point x="413" y="-9"/>
      <point x="499" y="97"/>
      <point x="499" y="304" type="curve" smooth="yes"/>
      <point x="499" y="510"/>
      <point x="413" y="616"/>
      <point x="277" y="616" type="curve" smooth="yes"/>
    </contour>
    <contour>
      <point x="277" y="582" type="line"/>
      <point x="399" y="582"/>
      <point x="459" y="480"/>
      <point x="459" y="304" type="curve" smooth="yes"/>
      <point x="459" y="128"/>
      <point x="399" y="26"/>
      <point x="277" y="26" type="curve" smooth="yes"/>
      <point x="156" y="26"/>
      <point x="95" y="128"/>
      <point x="95" y="304" type="curve" smooth="yes"/>
      <point x="95" y="480"/>
      <point x="156" y="582"/>
      <point x="277" y="582" type="curve" smooth="yes"/>
    </contour>
  </outline>
</glyph>
<glyph name="five" format="2">
  <advance width="547"/>
  <unicode hex="0035"/>
  <outline>
    <contour>
      <point x="142" y="607" type="line"/>
      <point x="117" y="332" type="line"/>
      <point x="255" y="332" type="line" smooth="yes"/>
      <point x="371" y="332"/>
      <point x="434" y="284"/>
      <point x="434" y="190" type="curve" smooth="yes"/>
      <point x="434" y="96"/>
      <point x="374" y="26"/>
      <point x="267" y="26" type="curve" smooth="yes"/>
      <point x="179" y="26"/>
      <point x="109" y="70"/>
      <point x="109" y="156" type="curve"/>
      <point x="73" y="156" type="line"/>
      <point x="73" y="47"/>
      <point x="170" y="-9"/>
      <point x="267" y="-9" type="curve" smooth="yes"/>
      <point x="397" y="-9"/>
      <point x="474" y="74"/>
      <point x="474" y="190" type="curve" smooth="yes"/>
      <point x="474" y="309"/>
      <point x="389" y="364"/>
      <point x="252" y="364" type="curve" smooth="yes"/>
      <point x="220" y="364"/>
      <point x="179" y="361"/>
      <point x="147" y="355" type="curve"/>
      <point x="157" y="347" type="line"/>
      <point x="180" y="593" type="line"/>
      <point x="171" y="573" type="line"/>
      <point x="448" y="573" type="line"/>
      <point x="448" y="607" type="line"/>
    </contour>
  </outline>
</glyph>
<glyph name="six" format="2">
  <advance width="537"/>
  <unicode hex="0036"/>
  <outline>
    <contour>
      <point x="424" y="468" type="line"/>
      <point x="411" y="538"/>
      <point x="373" y="582"/>
      <point x="295" y="582" type="curve" smooth="yes"/>
      <point x="168" y="582"/>
      <point x="95" y="467"/>
      <point x="95" y="279" type="curve" smooth="yes"/>
      <point x="95" y="248"/>
      <point x="96" y="203"/>
      <point x="101" y="169" type="curve"/>
      <point x="102" y="311"/>
      <point x="187" y="358"/>
      <point x="279" y="358" type="curve" smooth="yes"/>
      <point x="383" y="358"/>
      <point x="470" y="281"/>
      <point x="470" y="171" type="curve" smooth="yes"/>
      <point x="470" y="62"/>
      <point x="394" y="-9"/>
      <point x="279" y="-9" type="curve" smooth="yes"/>
      <point x="141" y="-9"/>
      <point x="55" y="125"/>
      <point x="55" y="292" type="curve" smooth="yes"/>
      <point x="55" y="491"/>
      <point x="141" y="616"/>
      <point x="295" y="616" type="curve" smooth="yes"/>
      <point x="391" y="616"/>
      <point x="452" y="556"/>
      <point x="467" y="468" type="curve"/>
    </contour>
    <contour>
      <point x="279" y="318" type="line"/>
      <point x="191" y="318"/>
      <point x="128" y="252"/>
      <point x="128" y="171" type="curve" smooth="yes"/>
      <point x="128" y="80"/>
      <point x="191" y="26"/>
      <point x="279" y="26" type="curve" smooth="yes"/>
      <point x="368" y="26"/>
      <point x="430" y="80"/>
      <point x="430" y="171" type="curve" smooth="yes"/>
      <point x="430" y="262"/>
      <point x="368" y="318"/>
      <point x="279" y="318" type="curve" smooth="yes"/>
    </contour>
  </outline>
</glyph>
<glyph name="seven" format="2">
  <advance width="441"/>
  <unicode hex="0037"/>
  <outline>
    <contour>
      <point x="24" y="607" type="line"/>
      <point x="24" y="573" type="line"/>
      <point x="379" y="573" type="line"/>
      <point x="74" y="0" type="line"/>
      <point x="122" y="0" type="line"/>
      <point x="423" y="577" type="line"/>
      <point x="423" y="607" type="line"/>
    </contour>
  </outline>
</glyph>
<glyph name="less" format="2">
  <advance width="403"/>
  <unicode hex="003C"/>
  <outline>
    <contour>
      <point x="332" y="524" type="line"/>
      <point x="36" y="303" type="line"/>
      <point x="36" y="273" type="line"/>
      <point x="332" y="52" type="line"/>
      <point x="355" y="83" type="line"/>
      <point x="62" y="295" type="line"/>
      <point x="62" y="281" type="line"/>
      <point x="355" y="495" type="line"/>
    </contour>
  </outline>
</glyph>
<glyph name="at" format="2">
  <advance width="848"/>
  <unicode hex="0040"/>
  <outline>
    <contour>
      <point x="538" y="187" type="line"/>
      <point x="507" y="119"/>
      <point x="469" y="80"/>
      <point x="409" y="80" type="curve" smooth="yes"/>
      <point x="344" y="80"/>
      <point x="298" y="128"/>
      <point x="298" y="210" type="curve" smooth="yes"/>
      <point x="298" y="328"/>
      <point x="392" y="399"/>
      <point x="462" y="399" type="curve" smooth="yes"/>
      <point x="515" y="399"/>
      <point x="538" y="372"/>
      <point x="538" y="300" type="curve" smooth="yes"/>
    </contour>
    <contour>
      <point x="460" y="616" type="line"/>
      <point x="225" y="616"/>
      <point x="67" y="450"/>
      <point x="67" y="238" type="curve" smooth="yes"/>
      <point x="67" y="13"/>
      <point x="247" y="-143"/>
      <point x="519" y="-143" type="curve"/>
      <point x="519" y="-113" type="line"/>
      <point x="270" y="-113"/>
      <point x="107" y="24"/>
      <point x="107" y="238" type="curve" smooth="yes"/>
      <point x="107" y="419"/>
      <point x="242" y="584"/>
      <point x="460" y="584" type="curve" smooth="yes"/>
      <point x="643" y="584"/>
      <point x="765" y="465"/>
      <point x="765" y="300" type="curve" smooth="yes"/>
      <point x="765" y="165"/>
      <point x="685" y="73"/>
      <point x="618" y="73" type="curve" smooth="yes"/>
      <point x="587" y="73"/>
      <point x="575" y="90"/>
      <point x="575" y="125" type="curve" smooth="yes"/>
      <point x="575" y="299" type="line" smooth="yes"/>
      <point x="575" y="386"/>
      <point x="530" y="429"/>
      <point x="462" y="429" type="curve" smooth="yes"/>
      <point x="357" y="429"/>
      <point x="258" y="338"/>
      <point x="258" y="210" type="curve" smooth="yes"/>
      <point x="258" y="111"/>
      <point x="332" y="50"/>
      <point x="409" y="50" type="curve" smooth="yes"/>
      <point x="475" y="50"/>
      <point x="515" y="92"/>
      <point x="538" y="140" type="curve"/>
      <point x="538" y="125" type="line" smooth="yes"/>
      <point x="538" y="75"/>
      <point x="569" y="50"/>
      <point x="618" y="50" type="curve" smooth="yes"/>
      <point x="716" y="50"/>
      <point x="806" y="154"/>
      <point x="806" y="300" type="curve" smooth="yes"/>
      <point x="806" y="473"/>
      <point x="666" y="616"/>
      <point x="460" y="616" type="curve" smooth="yes"/>
    </contour>
  </outline>
</glyph>
<glyph name="B" format="2">
  <advance width="594"/>
  <unicode hex="0042"/>
  <outline>
    <contour>
      <point x="109" y="0" type="line"/>
      <point x="316" y="0" type="line" smooth="yes"/>
      <point x="460" y="0"/>
      <point x="515" y="73"/>
      <point x="515" y="162" type="curve" smooth="yes"/>
      <point x="515" y="222"/>
      <point x="464" y="294"/>
      <point x="383" y="304" type="curve"/>
      <point x="467" y="320"/>
      <point x="504" y="380"/>
      <point x="504" y="451" type="curve" smooth="yes"/>
      <point x="504" y="532"/>
      <point x="442" y="607"/>
      <point x="316" y="607" type="curve" smooth="yes"/>
      <point x="109" y="607" type="line"/>
    </contour>
    <contour>
      <point x="146" y="32" type="line"/>
      <point x="146" y="288" type="line"/>
      <point x="316" y="288" type="line" smooth="yes"/>
      <point x="419" y="288"/>
      <point x="476" y="238"/>
      <point x="476" y="162" type="curve" smooth="yes"/>
      <point x="476" y="87"/>
      <point x="433" y="32"/>
      <point x="316" y="32" type="curve" smooth="yes"/>
    </contour>
    <contour>
      <point x="146" y="576" type="line"/>
      <point x="316" y="576" type="line" smooth="yes"/>
      <point x="405" y="576"/>
      <point x="465" y="531"/>
      <point x="465" y="451" type="curve" smooth="yes"/>
      <point x="465" y="366"/>
      <point x="402" y="318"/>
      <point x="316" y="318" type="curve" smooth="yes"/>
      <point x="146" y="318" type="line"/>
    </contour>
  </outline>
</glyph>
<glyph name="D" format="2">
  <advance width="633"/>
  <unicode hex="0044"/>
  <outline>
    <contour>
      <point x="109" y="607" type="line"/>
      <point x="109" y="0" type="line"/>
      <point x="266" y="0" type="line" smooth="yes"/>
      <point x="448" y="0"/>
      <point x="560" y="122"/>
      <point x="560" y="304" type="curve" smooth="yes"/>
      <point x="560" y="486"/>
      <point x="448" y="607"/>
      <point x="266" y="607" type="curve" smooth="yes"/>
    </contour>
    <contour>
      <point x="146" y="576" type="line"/>
      <point x="266" y="576" type="line" smooth="yes"/>
      <point x="424" y="576"/>
      <point x="521" y="462"/>
      <point x="521" y="304" type="curve" smooth="yes"/>
      <point x="521" y="146"/>
      <point x="424" y="30"/>
      <point x="266" y="30" type="curve" smooth="yes"/>
      <point x="146" y="30" type="line"/>
    </contour>
  </outline>
</glyph>
<glyph name="H" format="2">
  <advance width="631"/>
  <unicode hex="0048"/>
  <outline>
    <contour>
      <point x="109" y="607" type="line"/>
      <point x="109" y="0" type="line"/>
      <point x="146" y="0" type="line"/>
      <point x="146" y="293" type="line"/>
      <point x="485" y="293" type="line"/>
      <point x="485" y="0" type="line"/>
      <point x="521" y="0" type="line"/>
      <point x="521" y="607" type="line"/>
      <point x="485" y="607" type="line"/>
      <point x="485" y="324" type="line"/>
      <point x="146" y="324" type="line"/>
      <point x="146" y="607" type="line"/>
    </contour>
  </outline>
</glyph>
<glyph name="I" format="2">
  <advance width="255"/>
  <unicode hex="0049"/>
  <anchor x="128" y="607" name="above"/>
  <outline>
    <contour>
      <point x="109" y="0" type="line"/>
      <point x="146" y="0" type="line"/>
      <point x="146" y="607" type="line"/>
      <point x="109" y="607" type="line"/>
    </contour>
  </outline>
</glyph>
<glyph name="L" format="2">
  <advance width="440"/>
  <unicode hex="004C"/>
  <outline>
    <contour>
      <point x="146" y="607" type="line"/>
      <point x="109" y="607" type="line"/>
      <point x="109" y="0" type="line"/>
      <point x="440" y="0" type="line"/>
      <point x="440" y="32" type="line"/>
      <point x="146" y="32" type="line"/>
    </contour>
  </outline>
</glyph>
<glyph name="M" format="2">
  <advance width="819"/>
  <unicode hex="004D"/>
  <outline>
    <contour>
      <point x="109" y="607" type="line"/>
      <point x="109" y="0" type="line"/>
      <point x="146" y="0" type="line"/>
      <point x="146" y="577" type="line"/>
      <point x="139" y="577" type="line"/>
      <point x="397" y="87" type="line"/>
      <point x="423" y="87" type="line"/>
      <point x="683" y="582" type="line"/>
      <point x="673" y="582" type="line"/>
      <point x="673" y="0" type="line"/>
      <point x="710" y="0" type="line"/>
      <point x="710" y="607" type="line"/>
      <point x="656" y="607" type="line"/>
      <point x="407" y="134" type="line"/>
      <point x="413" y="134" type="line"/>
      <point x="163" y="607" type="line"/>
    </contour>
  </outline>
</glyph>
<glyph name="Q" format="2">
  <advance width="616"/>
  <unicode hex="0051"/>
  <outline>
    <contour>
      <point x="294" y="7" type="line"/>
      <point x="356" y="-77" type="line" smooth="yes"/>
      <point x="394" y="-128"/>
      <point x="429" y="-154"/>
      <point x="482" y="-154" type="curve" smooth="yes"/>
      <point x="507" y="-154"/>
      <point x="532" y="-147"/>
      <point x="561" y="-134" type="curve"/>
      <point x="561" y="-85" type="line"/>
      <point x="527" y="-103"/>
      <point x="501" y="-114"/>
      <point x="465" y="-114" type="curve" smooth="yes"/>
      <point x="445" y="-112"/>
      <point x="422" y="-101"/>
      <point x="397" y="-69" type="curve" smooth="yes"/>
      <point x="339" y="7" type="line"/>
    </contour>
    <contour>
      <point x="304" y="616" type="line"/>
      <point x="165" y="616"/>
      <point x="55" y="513"/>
      <point x="55" y="301" type="curve" smooth="yes"/>
      <point x="55" y="90"/>
      <point x="165" y="-9"/>
      <point x="304" y="-9" type="curve" smooth="yes"/>
      <point x="443" y="-9"/>
      <point x="553" y="90"/>
      <point x="553" y="301" type="curve" smooth="yes"/>
      <point x="553" y="513"/>
      <point x="443" y="616"/>
      <point x="304" y="616" type="curve" smooth="yes"/>
    </contour>
    <contour>
      <point x="304" y="582" type="line"/>
      <point x="434" y="582"/>
      <point x="513" y="484"/>
      <point x="513" y="301" type="curve" smooth="yes"/>
      <point x="513" y="119"/>
      <point x="434" y="26"/>
      <point x="304" y="26" type="curve" smooth="yes"/>
      <point x="174" y="26"/>
      <point x="95" y="119"/>
      <point x="95" y="301" type="curve" smooth="yes"/>
      <point x="95" y="484"/>
      <point x="174" y="582"/>
      <point x="304" y="582" type="curve" smooth="yes"/>
    </contour>
  </outline>
</glyph>
<glyph name="T" format="2">
  <advance width="469"/>
  <unicode hex="0054"/>
  <outline>
    <contour>
      <point x="6" y="576" type="line"/>
      <point x="216" y="576" type="line"/>
      <point x="216" y="0" type="line"/>
      <point x="253" y="0" type="line"/>
      <point x="253" y="576" type="line"/>
      <point x="463" y="576" type="line"/>
      <point x="463" y="607" type="line"/>
      <point x="6" y="607" type="line"/>
    </contour>
  </outline>
</glyph>
<glyph name="V" format="2">
  <advance width="521"/>
  <unicode hex="0056"/>
  <outline>
    <contour>
      <point x="256" y="36" type="line"/>
      <point x="265" y="36" type="line"/>
      <point x="57" y="607" type="line"/>
      <point x="18" y="607" type="line"/>
      <point x="242" y="0" type="line"/>
      <point x="279" y="0" type="line"/>
      <point x="503" y="607" type="line"/>
      <point x="464" y="607" type="line"/>
    </contour>
  </outline>
</glyph>
<glyph name="bracketleft" format="2">
  <advance width="279"/>
  <unicode hex="005B"/>
  <outline>
    <contour>
      <point x="109" y="-61" type="line"/>
      <point x="255" y="-61" type="line"/>
      <point x="255" y="-30" type="line"/>
      <point x="146" y="-30" type="line"/>
      <point x="146" y="638" type="line"/>
      <point x="255" y="638" type="line"/>
      <point x="255" y="668" type="line"/>
      <point x="109" y="668" type="line"/>
    </contour>
  </outline>
</glyph>
<glyph name="grave" format="2">
  <advance width="270"/>
  <unicode hex="0060"/>
  <anchor x="135" y="607" name="_above"/>
  <outline>
    <contour>
      <point x="24" y="782" type="line"/>
      <point x="232" y="659" type="line"/>
      <point x="248" y="682" type="line"/>
      <point x="46" y="816" type="line"/>
    </contour>
  </outline>
</glyph>
<glyph name="a" format="2">
  <advance width="515"/>
  <unicode hex="0061"/>
  <anchor x="264" y="486" name="above"/>
  <outline>
    <contour>
      <point x="386" y="306" type="line"/>
      <point x="386" y="411"/>
      <point x="338" y="450"/>
      <point x="258" y="450" type="curve" smooth="yes"/>
      <point x="190" y="450"/>
      <point x="128" y="424"/>
      <point x="128" y="351" type="curve"/>
      <point x="85" y="351" type="line"/>
      <point x="85" y="448"/>
      <point x="168" y="480"/>
      <point x="258" y="480" type="curve" smooth="yes"/>
      <point x="352" y="480"/>
      <point x="423" y="434"/>
      <point x="423" y="306" type="curve" smooth="yes"/>
      <point x="423" y="0" type="line"/>
      <point x="391" y="0" type="line"/>
      <point x="386" y="91" type="line"/>
    </contour>
    <contour>
      <point x="397" y="156" type="line"/>
      <point x="397" y="69"/>
      <point x="326" y="-9"/>
      <point x="225" y="-9" type="curve" smooth="yes"/>
      <point x="114" y="-9"/>
      <point x="66" y="61"/>
      <point x="66" y="126" type="curve" smooth="yes"/>
      <point x="66" y="228"/>
      <point x="148" y="262"/>
      <point x="237" y="262" type="curve" smooth="yes"/>
      <point x="284" y="262"/>
      <point x="340" y="249"/>
      <point x="389" y="228" type="curve"/>
      <point x="389" y="200" type="line"/>
      <point x="347" y="219"/>
      <point x="282" y="232"/>
      <point x="237" y="232" type="curve" smooth="yes"/>
      <point x="165" y="232"/>
      <point x="104" y="203"/>
      <point x="104" y="126" type="curve" smooth="yes"/>
      <point x="104" y="68"/>
      <point x="141" y="22"/>
      <point x="225" y="22" type="curve" smooth="yes"/>
      <point x="307" y="22"/>
      <point x="386" y="94"/>
      <point x="386" y="156" type="curve"/>
    </contour>
  </outline>
</glyph>
<glyph name="e" format="2">
  <advance width="496"/>
  <unicode hex="0065"/>
  <anchor x="253" y="486" name="above"/>
  <outline>
    <contour>
      <point x="86" y="264" type="line"/>
      <point x="86" y="233" type="line"/>
      <point x="441" y="233" type="line"/>
      <point x="441" y="360"/>
      <point x="395" y="480"/>
      <point x="260" y="480" type="curve" smooth="yes"/>
      <point x="134" y="480"/>
      <point x="55" y="386"/>
      <point x="55" y="233" type="curve" smooth="yes"/>
      <point x="55" y="95"/>
      <point x="135" y="-9"/>
      <point x="260" y="-9" type="curve" smooth="yes"/>
      <point x="354" y="-9"/>
      <point x="426" y="40"/>
      <point x="441" y="136" type="curve"/>
      <point x="399" y="136" type="line"/>
      <point x="390" y="61"/>
      <point x="339" y="22"/>
      <point x="260" y="22" type="curve" smooth="yes"/>
      <point x="147" y="22"/>
      <point x="94" y="115"/>
      <point x="94" y="233" type="curve" smooth="yes"/>
      <point x="94" y="250" type="line" smooth="yes"/>
      <point x="94" y="351"/>
      <point x="148" y="450"/>
      <point x="260" y="450" type="curve" smooth="yes"/>
      <point x="369" y="450"/>
      <point x="401" y="354"/>
      <point x="401" y="264" type="curve"/>
    </contour>
  </outline>
</glyph>
<glyph name="f" format="2">
  <advance width="317"/>
  <unicode hex="0066"/>
  <outline>
    <contour>
      <point x="323" y="671" type="line"/>
      <point x="300" y="680"/>
      <point x="279" y="684"/>
      <point x="256" y="684" type="curve" smooth="yes"/>
      <point x="183" y="684"/>
      <point x="134" y="644"/>
      <point x="134" y="560" type="curve" smooth="yes"/>
      <point x="134" y="0" type="line"/>
      <point x="170" y="0" type="line"/>
      <point x="170" y="560" type="line" smooth="yes"/>
      <point x="170" y="639"/>
      <point x="216" y="654"/>
      <point x="252" y="654" type="curve" smooth="yes"/>
      <point x="272" y="654"/>
      <point x="294" y="649"/>
      <point x="317" y="639" type="curve"/>
    </contour>
    <contour>
      <point x="49" y="441" type="line"/>
      <point x="279" y="441" type="line"/>
      <point x="279" y="471" type="line"/>
      <point x="49" y="471" type="line"/>
    </contour>
  </outline>
</glyph>
<glyph name="g" format="2">
  <advance width="547"/>
  <unicode hex="0067"/>
  <outline>
    <contour>
      <point x="177" y="162" type="line"/>
      <point x="145" y="162"/>
      <point x="102" y="139"/>
      <point x="102" y="92" type="curve" smooth="yes"/>
      <point x="102" y="58"/>
      <point x="124" y="30"/>
      <point x="203" y="30" type="curve" smooth="yes"/>
      <point x="412" y="30" type="line" smooth="yes"/>
      <point x="488" y="30"/>
      <point x="535" y="-13"/>
      <point x="535" y="-70" type="curve" smooth="yes"/>
      <point x="535" y="-154"/>
      <point x="434" y="-241"/>
      <point x="260" y="-241" type="curve" smooth="yes"/>
      <point x="134" y="-241"/>
      <point x="43" y="-181"/>
      <point x="43" y="-100" type="curve" smooth="yes"/>
      <point x="43" y="-21"/>
      <point x="107" y="20"/>
      <point x="203" y="20" type="curve"/>
      <point x="203" y="0" type="line"/>
      <point x="123" y="0"/>
      <point x="79" y="-40"/>
      <point x="79" y="-100" type="curve" smooth="yes"/>
      <point x="79" y="-157"/>
      <point x="137" y="-210"/>
      <point x="260" y="-210" type="curve" smooth="yes"/>
      <point x="400" y="-210"/>
      <point x="498" y="-145"/>
      <point x="498" y="-70" type="curve" smooth="yes"/>
      <point x="498" y="-34"/>
      <point x="470" y="0"/>
      <point x="412" y="0" type="curve" smooth="yes"/>
      <point x="203" y="0" type="line" smooth="yes"/>
      <point x="107" y="0"/>
      <point x="66" y="46"/>
      <point x="66" y="92" type="curve" smooth="yes"/>
      <point x="66" y="151"/>
      <point x="124" y="182"/>
      <point x="177" y="182" type="curve"/>
    </contour>
    <contour>
      <point x="281" y="480" type="line"/>
      <point x="384" y="480"/>
      <point x="458" y="409"/>
      <point x="458" y="306" type="curve" smooth="yes"/>
      <point x="458" y="203"/>
      <point x="384" y="130"/>
      <point x="281" y="130" type="curve" smooth="yes"/>
      <point x="177" y="130"/>
      <point x="103" y="203"/>
      <point x="103" y="306" type="curve" smooth="yes"/>
      <point x="103" y="409"/>
      <point x="177" y="480"/>
      <point x="281" y="480" type="curve" smooth="yes"/>
    </contour>
    <contour>
      <point x="281" y="450" type="line"/>
      <point x="196" y="450"/>
      <point x="140" y="391"/>
      <point x="140" y="306" type="curve" smooth="yes"/>
      <point x="140" y="221"/>
      <point x="196" y="160"/>
      <point x="281" y="160" type="curve" smooth="yes"/>
      <point x="366" y="160"/>
      <point x="422" y="221"/>
      <point x="422" y="306" type="curve" smooth="yes"/>
      <point x="422" y="391"/>
      <point x="366" y="450"/>
      <point x="281" y="450" type="curve" smooth="yes"/>
    </contour>
    <contour>
      <point x="403" y="406" type="line"/>
      <point x="403" y="486"/>
      <point x="440" y="542"/>
      <point x="527" y="542" type="curve"/>
      <point x="521" y="502" type="line"/>
      <point x="459" y="502"/>
      <point x="424" y="473"/>
      <point x="424" y="406" type="curve"/>
    </contour>
  </outline>
</glyph>
<glyph name="h" format="2">
  <advance width="583"/>
  <unicode hex="0068"/>
  <outline>
    <contour>
      <point x="109" y="677" type="line"/>
      <point x="109" y="0" type="line"/>
      <point x="146" y="0" type="line"/>
      <point x="146" y="677" type="line"/>
    </contour>
    <contour>
      <point x="312" y="480" type="line"/>
      <point x="186" y="480"/>
      <point x="125" y="379"/>
      <point x="125" y="236" type="curve"/>
      <point x="146" y="236" type="line"/>
      <point x="146" y="360"/>
      <point x="204" y="450"/>
      <point x="306" y="450" type="curve" smooth="yes"/>
      <point x="400" y="450"/>
      <point x="456" y="389"/>
      <point x="456" y="278" type="curve" smooth="yes"/>
      <point x="456" y="0" type="line"/>
      <point x="492" y="0" type="line"/>
      <point x="492" y="278" type="line" smooth="yes"/>
      <point x="492" y="406"/>
      <point x="419" y="480"/>
      <point x="312" y="480" type="curve" smooth="yes"/>
    </contour>
  </outline>
</glyph>
<glyph name="j" format="2">
  <advance width="292"/>
  <unicode hex="006A"/>
  <outline>
    <contour>
      <point x="123" y="638" type="line"/>
      <point x="123" y="622"/>
      <point x="134" y="609"/>
      <point x="152" y="609" type="curve" smooth="yes"/>
      <point x="170" y="609"/>
      <point x="182" y="622"/>
      <point x="182" y="638" type="curve" smooth="yes"/>
      <point x="182" y="654"/>
      <point x="170" y="666"/>
      <point x="152" y="666" type="curve" smooth="yes"/>
      <point x="134" y="666"/>
      <point x="123" y="654"/>
      <point x="123" y="638" type="curve" smooth="yes"/>
    </contour>
    <contour>
      <point x="134" y="-78" type="line"/>
      <point x="134" y="-164"/>
      <point x="97" y="-208"/>
      <point x="32" y="-208" type="curve" smooth="yes"/>
      <point x="-12" y="-208"/>
      <point x="-47" y="-192"/>
      <point x="-90" y="-164" type="curve"/>
      <point x="-96" y="-198" type="line"/>
      <point x="-51" y="-228"/>
      <point x="-9" y="-241"/>
      <point x="32" y="-241" type="curve" smooth="yes"/>
      <point x="108" y="-241"/>
      <point x="170" y="-193"/>
      <point x="170" y="-78" type="curve" smooth="yes"/>
      <point x="170" y="473" type="line"/>
      <point x="134" y="473" type="line"/>
    </contour>
  </outline>
</glyph>
<glyph name="k" format="2">
  <advance width="535"/>
  <unicode hex="006B"/>
  <outline>
    <contour>
      <point x="109" y="0" type="line"/>
      <point x="146" y="0" type="line"/>
      <point x="146" y="677" type="line"/>
      <point x="109" y="677" type="line"/>
    </contour>
    <contour>
      <point x="139" y="247" type="line"/>
      <point x="139" y="204" type="line"/>
      <point x="475" y="471" type="line"/>
      <point x="419" y="471" type="line"/>
    </contour>
    <contour>
      <point x="440" y="0" type="line"/>
      <point x="486" y="0" type="line"/>
      <point x="248" y="295" type="line"/>
      <point x="202" y="295" type="line"/>
    </contour>
  </outline>
</glyph>
<glyph name="p" format="2">
  <advance width="558"/>
  <unicode hex="0070"/>
  <outline>
    <contour>
      <point x="109" y="471" type="line"/>
      <point x="141" y="471" type="line"/>
      <point x="146" y="368" type="line"/>
      <point x="146" y="-232" type="line"/>
      <point x="109" y="-232" type="line"/>
    </contour>
    <contour>
      <point x="299" y="-9" type="line"/>
      <point x="197" y="-9"/>
      <point x="123" y="69"/>
      <point x="123" y="193" type="curve"/>
      <point x="146" y="193" type="line"/>
      <point x="146" y="80"/>
      <point x="221" y="22"/>
      <point x="299" y="22" type="curve" smooth="yes"/>
      <point x="385" y="22"/>
      <point x="462" y="100"/>
      <point x="462" y="236" type="curve" smooth="yes"/>
      <point x="462" y="372"/>
      <point x="385" y="450"/>
      <point x="299" y="450" type="curve" smooth="yes"/>
      <point x="222" y="450"/>
      <point x="146" y="392"/>
      <point x="146" y="278" type="curve"/>
      <point x="123" y="278" type="line"/>
      <point x="123" y="402"/>
      <point x="197" y="480"/>
      <point x="299" y="480" type="curve" smooth="yes"/>
      <point x="407" y="480"/>
      <point x="503" y="388"/>
      <point x="503" y="236" type="curve" smooth="yes"/>
      <point x="503" y="84"/>
      <point x="407" y="-9"/>
      <point x="299" y="-9" type="curve"/>
    </contour>
  </outline>
</glyph>
<glyph name="q" format="2">
  <advance width="558"/>
  <unicode hex="0071"/>
  <outline>
    <contour>
      <point x="55" y="236" type="line"/>
      <point x="55" y="388"/>
      <point x="151" y="480"/>
      <point x="259" y="480" type="curve" smooth="yes"/>
      <point x="361" y="480"/>
      <point x="435" y="402"/>
      <point x="435" y="278" type="curve"/>
      <point x="412" y="278" type="line"/>
      <point x="412" y="392"/>
      <point x="335" y="450"/>
      <point x="259" y="450" type="curve" smooth="yes"/>
      <point x="173" y="450"/>
      <point x="96" y="372"/>
      <point x="96" y="236" type="curve" smooth="yes"/>
      <point x="96" y="100"/>
      <point x="173" y="22"/>
      <point x="259" y="22" type="curve" smooth="yes"/>
      <point x="335" y="22"/>
      <point x="412" y="79"/>
      <point x="412" y="193" type="curve"/>
      <point x="435" y="193" type="line"/>
      <point x="435" y="69"/>
      <point x="361" y="-9"/>
      <point x="259" y="-9" type="curve" smooth="yes"/>
      <point x="151" y="-9"/>
      <point x="55" y="84"/>
      <point x="55" y="236" type="curve" smooth="yes"/>
    </contour>
    <contour>
      <point x="417" y="471" type="line"/>
      <point x="448" y="471" type="line"/>
      <point x="448" y="-87" type="line" smooth="yes"/>
      <point x="448" y="-165"/>
      <point x="465" y="-185"/>
      <point x="527" y="-207" type="curve"/>
      <point x="509" y="-241" type="line"/>
      <point x="435" y="-217"/>
      <point x="412" y="-176"/>
      <point x="412" y="-87" type="curve" smooth="yes"/>
      <point x="412" y="368" type="line"/>
    </contour>
  </outline>
</glyph>
<glyph name="r" format="2">
  <advance width="330"/>
  <unicode hex="0072"/>
  <outline>
    <contour>
      <point x="109" y="471" type="line"/>
      <point x="109" y="0" type="line"/>
      <point x="146" y="0" type="line"/>
      <point x="146" y="471" type="line"/>
    </contour>
    <contour>
      <point x="270" y="480" type="line"/>
      <point x="163" y="480"/>
      <point x="128" y="391"/>
      <point x="128" y="219" type="curve"/>
      <point x="146" y="219" type="line"/>
      <point x="146" y="350"/>
      <point x="173" y="447"/>
      <point x="264" y="447" type="curve" smooth="yes"/>
      <point x="283" y="447"/>
      <point x="309" y="441"/>
      <point x="329" y="433" type="curve"/>
      <point x="337" y="467" type="line"/>
      <point x="315" y="475"/>
      <point x="295" y="480"/>
      <point x="270" y="480" type="curve" smooth="yes"/>
    </contour>
  </outline>
</glyph>
<glyph name="s" format="2">
  <advance width="524"/>
  <unicode hex="0073"/>
  <outline>
    <contour>
      <point x="256" y="480" type="line"/>
      <point x="366" y="480"/>
      <point x="429" y="434"/>
      <point x="434" y="373" type="curve"/>
      <point x="392" y="373" type="line"/>
      <point x="383" y="425"/>
      <point x="335" y="450"/>
      <point x="256" y="450" type="curve" smooth="yes"/>
      <point x="175" y="450"/>
      <point x="130" y="403"/>
      <point x="130" y="361" type="curve" smooth="yes"/>
      <point x="130" y="315"/>
      <point x="165" y="286"/>
      <point x="241" y="266" type="curve" smooth="yes"/>
      <point x="316" y="245" type="line" smooth="yes"/>
      <point x="405" y="221"/>
      <point x="451" y="183"/>
      <point x="451" y="120" type="curve" smooth="yes"/>
      <point x="451" y="53"/>
      <point x="386" y="-9"/>
      <point x="272" y="-9" type="curve" smooth="yes"/>
      <point x="135" y="-9"/>
      <point x="78" y="58"/>
      <point x="73" y="135" type="curve"/>
      <point x="113" y="135" type="line"/>
      <point x="117" y="62"/>
      <point x="176" y="22"/>
      <point x="272" y="22" type="curve" smooth="yes"/>
      <point x="345" y="22"/>
      <point x="413" y="63"/>
      <point x="413" y="120" type="curve" smooth="yes"/>
      <point x="413" y="168"/>
      <point x="380" y="191"/>
      <point x="303" y="211" type="curve" smooth="yes"/>
      <point x="224" y="233" type="line" smooth="yes"/>
      <point x="137" y="256"/>
      <point x="91" y="300"/>
      <point x="91" y="361" type="curve" smooth="yes"/>
      <point x="91" y="433"/>
      <point x="159" y="480"/>
      <point x="256" y="480" type="curve" smooth="yes"/>
    </contour>
  </outline>
</glyph>
<glyph name="t" format="2">
  <advance width="357"/>
  <unicode hex="0074"/>
  <outline>
    <contour>
      <point x="122" y="607" type="line"/>
      <point x="158" y="607" type="line"/>
      <point x="158" y="111" type="line" smooth="yes"/>
      <point x="158" y="51"/>
      <point x="185" y="22"/>
      <point x="239" y="22" type="curve" smooth="yes"/>
      <point x="270" y="22"/>
      <point x="296" y="29"/>
      <point x="329" y="43" type="curve"/>
      <point x="334" y="15" type="line"/>
      <point x="303" y="0"/>
      <point x="271" y="-9"/>
      <point x="239" y="-9" type="curve" smooth="yes"/>
      <point x="168" y="-9"/>
      <point x="122" y="32"/>
      <point x="122" y="111" type="curve" smooth="yes"/>
    </contour>
    <contour>
      <point x="36" y="471" type="line"/>
      <point x="328" y="471" type="line"/>
      <point x="328" y="441" type="line"/>
      <point x="36" y="441" type="line"/>
    </contour>
  </outline>
</glyph>
<glyph name="v" format="2">
  <advance width="486"/>
  <unicode hex="0076"/>
  <outline>
    <contour>
      <point x="24" y="471" type="line"/>
      <point x="225" y="0" type="line"/>
      <point x="261" y="0" type="line"/>
      <point x="462" y="471" type="line"/>
      <point x="422" y="471" type="line"/>
      <point x="237" y="33" type="line"/>
      <point x="249" y="33" type="line"/>
      <point x="64" y="471" type="line"/>
    </contour>
  </outline>
</glyph>
<glyph name="x" format="2">
  <advance width="468"/>
  <unicode hex="0078"/>
  <outline>
    <contour>
      <point x="430" y="0" type="line"/>
      <point x="385" y="0" type="line"/>
      <point x="231" y="208" type="line"/>
      <point x="81" y="0" type="line"/>
      <point x="36" y="0" type="line"/>
      <point x="210" y="236" type="line"/>
      <point x="36" y="471" type="line"/>
      <point x="81" y="471" type="line"/>
      <point x="236" y="264" type="line"/>
      <point x="386" y="471" type="line"/>
      <point x="431" y="471" type="line"/>
      <point x="255" y="236" type="line"/>
    </contour>
  </outline>
</glyph>
<glyph name="z" format="2">
  <advance width="454"/>
  <unicode hex="007A"/>
  <outline>
    <contour>
      <point x="49" y="30" type="line"/>
      <point x="361" y="441" type="line"/>
      <point x="49" y="441" type="line"/>
      <point x="49" y="471" type="line"/>
      <point x="406" y="471" type="line"/>
      <point x="406" y="441" type="line"/>
      <point x="94" y="30" type="line"/>
      <point x="406" y="30" type="line"/>
      <point x="406" y="0" type="line"/>
      <point x="49" y="0" type="line"/>
    </contour>
  </outline>
</glyph>
<glyph name="bar" format="2">
  <advance width="255"/>
  <unicode hex="007C"/>
  <outline>
    <contour>
      <point x="109" y="-122" type="line"/>
      <point x="146" y="-122" type="line"/>
      <point x="146" y="729" type="line"/>
      <point x="109" y="729" type="line"/>
    </contour>
  </outline>
</glyph>
<glyph name="sterling" format="2">
  <advance width="527"/>
  <unicode hex="00A3"/>
  <outline>
    <contour>
      <point x="22" y="284" type="line"/>
      <point x="22" y="253" type="line"/>
      <point x="349" y="253" type="line"/>
      <point x="349" y="284" type="line"/>
    </contour>
    <contour>
      <point x="18" y="0" type="line"/>
      <point x="351" y="0" type="line" smooth="yes"/>
      <point x="447" y="0"/>
      <point x="480" y="49"/>
      <point x="491" y="122" type="curve"/>
      <point x="454" y="122" type="line"/>
      <point x="443" y="58"/>
      <point x="414" y="30"/>
      <point x="351" y="30" type="curve" smooth="yes"/>
      <point x="18" y="30" type="line"/>
    </contour>
    <contour>
      <point x="284" y="616" type="line"/>
      <point x="164" y="616"/>
      <point x="120" y="535"/>
      <point x="120" y="419" type="curve" smooth="yes"/>
      <point x="120" y="123" type="line" smooth="yes"/>
      <point x="120" y="60"/>
      <point x="95" y="30"/>
      <point x="41" y="30" type="curve"/>
      <point x="41" y="18" type="line"/>
      <point x="135" y="18"/>
      <point x="157" y="46"/>
      <point x="157" y="123" type="curve" smooth="yes"/>
      <point x="157" y="419" type="line" smooth="yes"/>
      <point x="157" y="533"/>
      <point x="205" y="582"/>
      <point x="284" y="582" type="curve" smooth="yes"/>
      <point x="338" y="582"/>
      <point x="386" y="555"/>
      <point x="399" y="492" type="curve"/>
      <point x="435" y="492" type="line"/>
      <point x="420" y="573"/>
      <point x="361" y="616"/>
      <point x="284" y="616" type="curve" smooth="yes"/>
    </contour>
  </outline>
</glyph>
<glyph name="yen" format="2">
  <advance width="509"/>
  <unicode hex="00A5"/>
  <guideline x="256" y="287" angle="90"/>
  <guideline x="255" y="287" angle="90"/>
  <outline>
    <contour>
      <point x="236" y="0" type="line"/>
      <point x="275" y="0" type="line"/>
      <point x="275" y="248" type="line"/>
      <point x="497" y="607" type="line"/>
      <point x="453" y="607" type="line"/>
      <point x="247" y="275" type="line"/>
      <point x="264" y="275" type="line"/>
      <point x="57" y="607" type="line"/>
      <point x="12" y="607" type="line"/>
      <point x="236" y="248" type="line"/>
    </contour>
    <contour>
      <point x="92" y="117" type="line"/>
      <point x="419" y="117" type="line"/>
      <point x="419" y="148" type="line"/>
      <point x="92" y="148" type="line"/>
    </contour>
    <contour>
      <point x="92" y="208" type="line"/>
      <point x="419" y="208" type="line"/>
      <point x="419" y="239" type="line"/>
      <point x="92" y="239" type="line"/>
    </contour>
  </outline>
</glyph>
<glyph name="dieresis" format="2">
  <advance width="259"/>
  <unicode hex="00A8"/>
  <anchor x="129" y="677" name="_above"/>
  <outline>
    <contour>
      <point x="24" y="819" type="line"/>
      <point x="24" y="802"/>
      <point x="39" y="787"/>
      <point x="57" y="787" type="curve" smooth="yes"/>
      <point x="77" y="787"/>
      <point x="92" y="802"/>
      <point x="92" y="819" type="curve" smooth="yes"/>
      <point x="92" y="837"/>
      <point x="77" y="853"/>
      <point x="57" y="853" type="curve" smooth="yes"/>
      <point x="39" y="853"/>
      <point x="24" y="837"/>
      <point x="24" y="819" type="curve" smooth="yes"/>
    </contour>
    <contour>
      <point x="166" y="820" type="line"/>
      <point x="166" y="803"/>
      <point x="181" y="789"/>
      <point x="199" y="789" type="curve" smooth="yes"/>
      <point x="219" y="789"/>
      <point x="234" y="803"/>
      <point x="234" y="820" type="curve" smooth="yes"/>
      <point x="234" y="838"/>
      <point x="219" y="854"/>
      <point x="199" y="854" type="curve" smooth="yes"/>
      <point x="181" y="854"/>
      <point x="166" y="838"/>
      <point x="166" y="820" type="curve" smooth="yes"/>
    </contour>
  </outline>
</glyph>
<glyph name="multiply" format="2">
  <advance width="510"/>
  <unicode hex="00D7"/>
  <outline>
    <contour>
      <point x="100" y="66" type="line"/>
      <point x="255" y="220" type="line"/>
      <point x="410" y="66" type="line"/>
      <point x="435" y="91" type="line"/>
      <point x="281" y="246" type="line"/>
      <point x="435" y="401" type="line"/>
      <point x="410" y="426" type="line"/>
      <point x="255" y="272" type="line"/>
      <point x="100" y="426" type="line"/>
      <point x="75" y="401" type="line"/>
      <point x="229" y="246" type="line"/>
      <point x="75" y="91" type="line"/>
    </contour>
  </outline>
</glyph>
<glyph name="dotlessi" format="2">
  <advance width="255"/>
  <unicode hex="0131"/>
  <anchor x="128" y="486" name="above"/>
  <outline>
    <contour>
      <point x="109" y="0" type="line"/>
      <point x="146" y="0" type="line"/>
      <point x="146" y="471" type="line"/>
      <point x="109" y="471" type="line"/>
    </contour>
  </outline>
</glyph>
<glyph name="circumflex" format="2">
  <advance width="345"/>
  <unicode hex="02C6"/>
  <anchor x="173" y="607" name="_above"/>
  <outline>
    <contour>
      <point x="173" y="829" type="line"/>
      <point x="24" y="677" type="line"/>
      <point x="47" y="659" type="line"/>
      <point x="173" y="775" type="line"/>
      <point x="298" y="659" type="line"/>
      <point x="321" y="677" type="line"/>
    </contour>
  </outline>
</glyph>
<glyph name="emdash" format="2">
  <advance width="680"/>
  <unicode hex="2014"/>
  <outline>
    <contour>
      <point x="55" y="265" type="line"/>
      <point x="626" y="265" type="line"/>
      <point x="626" y="296" type="line"/>
      <point x="55" y="296" type="line"/>
    </contour>
  </outline>
</glyph>
<glyph name="quoteright" format="2">
  <advance width="152"/>
  <unicode hex="2019"/>
  <outline>
    <contour>
      <point x="50" y="599" type="line"/>
      <point x="29" y="599"/>
      <point x="18" y="584"/>
      <point x="18" y="567" type="curve" smooth="yes"/>
      <point x="18" y="548"/>
      <point x="34" y="537"/>
      <point x="56" y="537" type="curve"/>
      <point x="51" y="510"/>
      <point x="32" y="491"/>
      <point x="0" y="474" type="curve"/>
      <point x="29" y="460" type="line"/>
      <point x="74" y="484"/>
      <point x="91" y="520"/>
      <point x="91" y="550" type="curve" smooth="yes"/>
      <point x="91" y="580"/>
      <point x="73" y="599"/>
      <point x="50" y="599" type="curve" smooth="yes"/>
    </contour>
  </outline>
</glyph>
<glyph name="Rupee" format="2">
  <advance width="556"/>
  <unicode hex="20B9"/>
  <outline>
    <contour>
      <point x="102" y="577" type="line"/>
      <point x="468" y="577" type="line"/>
      <point x="468" y="607" type="line"/>
      <point x="102" y="607" type="line"/>
    </contour>
    <contour>
      <point x="102" y="435" type="line"/>
      <point x="468" y="435" type="line"/>
      <point x="468" y="465" type="line"/>
      <point x="102" y="465" type="line"/>
    </contour>
    <contour>
      <point x="102" y="279" type="line"/>
      <point x="102" y="249" type="line"/>
      <point x="388" y="0" type="line"/>
      <point x="442" y="0" type="line"/>
      <point x="117" y="279" type="line"/>
    </contour>
    <contour>
      <point x="115" y="279" type="line"/>
      <point x="115" y="249" type="line"/>
      <point x="154" y="249" type="line" smooth="yes"/>
      <point x="316" y="249"/>
      <point x="380" y="332"/>
      <point x="380" y="429" type="curve" smooth="yes"/>
      <point x="380" y="526"/>
      <point x="311" y="600"/>
      <point x="154" y="600" type="curve" smooth="yes"/>
      <point x="115" y="600" type="line"/>
      <point x="115" y="577" type="line"/>
      <point x="154" y="577" type="line" smooth="yes"/>
      <point x="281" y="577"/>
      <point x="340" y="514"/>
      <point x="340" y="429" type="curve" smooth="yes"/>
      <point x="340" y="344"/>
      <point x="281" y="279"/>
      <point x="154" y="279" type="curve" smooth="yes"/>
    </contour>
  </outline>
</glyph>
<glyph name="notequal" format="2">
  <advance width="468"/>
  <unicode hex="2260"/>
  <outline>
    <contour>
      <point x="79" y="170" type="line"/>
      <point x="79" y="139" type="line"/>
      <point x="389" y="139" type="line"/>
      <point x="389" y="170" type="line"/>
    </contour>
    <contour>
      <point x="79" y="343" type="line"/>
      <point x="79" y="311" type="line"/>
      <point x="389" y="311" type="line"/>
      <point x="389" y="343" type="line"/>
    </contour>
    <contour>
      <point x="142" y="66" type="line"/>
      <point x="174" y="66" type="line"/>
      <point x="319" y="421" type="line"/>
      <point x="286" y="421" type="line"/>
    </contour>
  </outline>
</glyph>
<glyph name="greaterequal" format="2">
  <advance width="468"/>
  <unicode hex="2265"/>
  <outline>
    <contour>
      <point x="94" y="119" type="line"/>
      <point x="379" y="243" type="line"/>
      <point x="379" y="273" type="line"/>
      <point x="94" y="397" type="line"/>
      <point x="77" y="370" type="line"/>
      <point x="353" y="251" type="line"/>
      <point x="353" y="265" type="line"/>
      <point x="77" y="148" type="line"/>
    </contour>
    <contour>
      <point x="81" y="0" type="line"/>
      <point x="391" y="0" type="line"/>
      <point x="391" y="31" type="line"/>
      <point x="81" y="31" type="line"/>
    </contour>
  </outline>
</glyph>
<glyph name="asterisk.tf" format="2">
  <advance width="600"/>
  <outline>
    <contour>
      <point x="185" y="406" type="line"/>
      <point x="216" y="379" type="line"/>
      <point x="301" y="487" type="line"/>
      <point x="386" y="379" type="line"/>
      <point x="416" y="406" type="line"/>
      <point x="321" y="502" type="line"/>
      <point x="444" y="546" type="line"/>
      <point x="427" y="582" type="line"/>
      <point x="313" y="526" type="line"/>
      <point x="320" y="663" type="line"/>
      <point x="280" y="663" type="line"/>
      <point x="287" y="526" type="line"/>
      <point x="173" y="582" type="line"/>
      <point x="156" y="546" type="line"/>
      <point x="279" y="502" type="line"/>
    </contour>
  </outline>
</glyph>
<glyph name="comma.tf" format="2">
  <advance width="600"/>
  <outline>
    <contour>
      <point x="273" y="26" type="line"/>
      <point x="273" y="6"/>
      <point x="288" y="-6"/>
      <point x="310" y="-6" type="curve"/>
      <point x="305" y="-35"/>
      <point x="286" y="-52"/>
      <point x="254" y="-68" type="curve"/>
      <point x="284" y="-81" type="line"/>
      <point x="329" y="-58"/>
      <point x="346" y="-22"/>
      <point x="346" y="9" type="curve" smooth="yes"/>
      <point x="346" y="36"/>
      <point x="327" y="57"/>
      <point x="304" y="57" type="curve" smooth="yes"/>
      <point x="284" y="57"/>
      <point x="273" y="41"/>
      <point x="273" y="26" type="curve" smooth="yes"/>
    </contour>
  </outline>
</glyph>
<glyph name="dollar.tf" format="2">
  <advance width="600"/>
  <outline>
    <contour>
      <point x="300" y="615" type="line"/>
      <point x="410" y="615"/>
      <point x="477" y="560"/>
      <point x="488" y="482" type="curve"/>
      <point x="451" y="482" type="line"/>
      <point x="440" y="547"/>
      <point x="387" y="581"/>
      <point x="300" y="581" type="curve" smooth="yes"/>
      <point x="201" y="581"/>
      <point x="145" y="531"/>
      <point x="145" y="460" type="curve" smooth="yes"/>
      <point x="145" y="403"/>
      <point x="177" y="372"/>
      <point x="250" y="351" type="curve" smooth="yes"/>
      <point x="295" y="338" type="line"/>
      <point x="295" y="301" type="line"/>
      <point x="267" y="310" type="line" smooth="yes"/>
      <point x="159" y="345"/>
      <point x="106" y="380"/>
      <point x="106" y="463" type="curve" smooth="yes"/>
      <point x="106" y="552"/>
      <point x="173" y="615"/>
      <point x="300" y="615" type="curve" smooth="yes"/>
    </contour>
    <contour>
      <point x="280" y="686" type="line"/>
      <point x="317" y="686" type="line"/>
      <point x="317" y="-81" type="line"/>
      <point x="280" y="-81" type="line"/>
    </contour>
    <contour>
      <point x="369" y="316" type="line" smooth="yes"/>
      <point x="451" y="292"/>
      <point x="512" y="244"/>
      <point x="512" y="157" type="curve" smooth="yes"/>
      <point x="512" y="74"/>
      <point x="439" y="-9"/>
      <point x="298" y="-9" type="curve" smooth="yes"/>
      <point x="182" y="-9"/>
      <point x="87" y="60"/>
      <point x="87" y="173" type="curve"/>
      <point x="123" y="173" type="line"/>
      <point x="123" y="72"/>
      <point x="204" y="26"/>
      <point x="298" y="26" type="curve" smooth="yes"/>
      <point x="408" y="26"/>
      <point x="471" y="91"/>
      <point x="471" y="157" type="curve" smooth="yes"/>
      <point x="471" y="220"/>
      <point x="430" y="261"/>
      <point x="360" y="282" type="curve" smooth="yes"/>
      <point x="303" y="299" type="line"/>
      <point x="303" y="335" type="line"/>
    </contour>
  </outline>
</glyph>
<glyph name="equal.tf" format="2">
  <advance width="600"/>
  <outline>
    <contour>
      <point x="145" y="170" type="line"/>
      <point x="145" y="139" type="line"/>
      <point x="455" y="139" type="line"/>
      <point x="455" y="170" type="line"/>
    </contour>
    <contour>
      <point x="145" y="343" type="line"/>
      <point x="145" y="311" type="line"/>
      <point x="455" y="311" type="line"/>
      <point x="455" y="343" type="line"/>
    </contour>
  </outline>
</glyph>
<glyph name="euro.tf" format="2">
  <advance width="600"/>
  <outline>
    <contour>
      <point x="33" y="247" type="line"/>
      <point x="33" y="278" type="line"/>
      <point x="360" y="278" type="line"/>
      <point x="360" y="247" type="line"/>
    </contour>
    <contour>
      <point x="33" y="338" type="line"/>
      <point x="33" y="369" type="line"/>
      <point x="360" y="369" type="line"/>
      <point x="360" y="338" type="line"/>
    </contour>
    <contour>
      <point x="325" y="616" type="line"/>
      <point x="436" y="616"/>
      <point x="515" y="549"/>
      <point x="553" y="452" type="curve"/>
      <point x="512" y="442" type="line"/>
      <point x="481" y="530"/>
      <point x="405" y="583"/>
      <point x="325" y="583" type="curve" smooth="yes"/>
      <point x="218" y="583"/>
      <point x="116" y="487"/>
      <point x="116" y="310" type="curve" smooth="yes"/>
      <point x="116" y="154"/>
      <point x="181" y="24"/>
      <point x="325" y="24" type="curve" smooth="yes"/>
      <point x="435" y="24"/>
      <point x="512" y="89"/>
      <point x="512" y="194" type="curve"/>
      <point x="554" y="194" type="line"/>
      <point x="554" y="68"/>
      <point x="452" y="-9"/>
      <point x="325" y="-9" type="curve" smooth="yes"/>
      <point x="168" y="-9"/>
      <point x="76" y="131"/>
      <point x="76" y="310" type="curve" smooth="yes"/>
      <point x="76" y="507"/>
      <point x="190" y="616"/>
      <point x="325" y="616" type="curve" smooth="yes"/>
    </contour>
  </outline>
</glyph>
<glyph name="five.tf" format="2">
  <advance width="600"/>
  <outline>
    <contour>
      <point x="164" y="607" type="line"/>
      <point x="139" y="332" type="line"/>
      <point x="277" y="332" type="line" smooth="yes"/>
      <point x="393" y="332"/>
      <point x="456" y="284"/>
      <point x="456" y="190" type="curve" smooth="yes"/>
      <point x="456" y="96"/>
      <point x="396" y="26"/>
      <point x="289" y="26" type="curve" smooth="yes"/>
      <point x="201" y="26"/>
      <point x="131" y="70"/>
      <point x="131" y="156" type="curve"/>
      <point x="95" y="156" type="line"/>
      <point x="95" y="47"/>
      <point x="192" y="-9"/>
      <point x="289" y="-9" type="curve" smooth="yes"/>
      <point x="419" y="-9"/>
      <point x="496" y="74"/>
      <point x="496" y="190" type="curve" smooth="yes"/>
      <point x="496" y="309"/>
      <point x="411" y="364"/>
      <point x="274" y="364" type="curve" smooth="yes"/>
      <point x="242" y="364"/>
      <point x="201" y="361"/>
      <point x="169" y="355" type="curve"/>
      <point x="179" y="347" type="line"/>
      <point x="202" y="593" type="line"/>
      <point x="193" y="573" type="line"/>
      <point x="470" y="573" type="line"/>
      <point x="470" y="607" type="line"/>
    </contour>
  </outline>
</glyph>
<glyph name="four.prop" format="2">
  <advance width="521"/>
  <outline>
    <contour>
      <point x="357" y="516" type="line"/>
      <point x="30" y="90" type="line"/>
      <point x="30" y="60" type="line"/>
      <point x="350" y="60" type="line"/>
      <point x="350" y="-102" type="line"/>
      <point x="386" y="-102" type="line"/>
      <point x="386" y="60" type="line"/>
      <point x="491" y="60" type="line"/>
      <point x="491" y="90" type="line"/>
      <point x="386" y="90" type="line"/>
      <point x="386" y="516" type="line"/>
    </contour>
    <contour>
      <point x="350" y="445" type="line"/>
      <point x="350" y="90" type="line"/>
      <point x="75" y="90" type="line"/>
    </contour>
  </outline>
</glyph>
<glyph name="four.tf" format="2">
  <advance width="600"/>
  <outline>
    <contour>
      <point x="387" y="618" type="line"/>
      <point x="60" y="192" type="line"/>
      <point x="60" y="162" type="line"/>
      <point x="385" y="162" type="line"/>
      <point x="380" y="167" type="line"/>
      <point x="380" y="0" type="line"/>
      <point x="416" y="0" type="line"/>
      <point x="416" y="167" type="line"/>
      <point x="412" y="162" type="line"/>
      <point x="521" y="162" type="line"/>
      <point x="521" y="192" type="line"/>
      <point x="411" y="192" type="line"/>
      <point x="416" y="187" type="line"/>
      <point x="416" y="618" type="line"/>
    </contour>
    <contour>
      <point x="380" y="592" type="line"/>
      <point x="380" y="187" type="line"/>
      <point x="385" y="192" type="line"/>
      <point x="94" y="192" type="line"/>
      <point x="94" y="178" type="line"/>
      <point x="408" y="583" type="line"/>
    </contour>
  </outline>
</glyph>
<glyph name="greater.tf" format="2">
  <advance width="600"/>
  <outline>
    <contour>
      <point x="164" y="524" type="line"/>
      <point x="459" y="303" type="line"/>
      <point x="459" y="273" type="line"/>
      <point x="164" y="52" type="line"/>
      <point x="141" y="83" type="line"/>
      <point x="433" y="295" type="line"/>
      <point x="433" y="281" type="line"/>
      <point x="141" y="495" type="line"/>
    </contour>
  </outline>
</glyph>
<glyph name="less.tf" format="2">
  <advance width="600"/>
  <outline>
    <contour>
      <point x="436" y="524" type="line"/>
      <point x="140" y="303" type="line"/>
      <point x="140" y="273" type="line"/>
      <point x="436" y="52" type="line"/>
      <point x="459" y="83" type="line"/>
      <point x="166" y="295" type="line"/>
      <point x="166" y="281" type="line"/>
      <point x="459" y="495" type="line"/>
    </contour>
  </outline>
</glyph>
<glyph name="nine.tf" format="2">
  <advance width="600"/>
  <outline>
    <contour>
      <point x="283" y="616" type="line"/>
      <point x="416" y="616"/>
      <point x="508" y="501"/>
      <point x="508" y="316" type="curve" smooth="yes"/>
      <point x="508" y="115"/>
      <point x="441" y="-9"/>
      <point x="283" y="-9" type="curve" smooth="yes"/>
      <point x="169" y="-9"/>
      <point x="93" y="73"/>
      <point x="93" y="180" type="curve"/>
      <point x="132" y="180" type="line"/>
      <point x="132" y="86"/>
      <point x="186" y="26"/>
      <point x="283" y="26" type="curve" smooth="yes"/>
      <point x="410" y="26"/>
      <point x="467" y="141"/>
      <point x="467" y="328" type="curve" smooth="yes"/>
      <point x="467" y="360"/>
      <point x="466" y="384"/>
      <point x="461" y="419" type="curve"/>
      <point x="453" y="313"/>
      <point x="386" y="249"/>
      <point x="283" y="249" type="curve" smooth="yes"/>
      <point x="179" y="249"/>
      <point x="92" y="327"/>
      <point x="92" y="436" type="curve" smooth="yes"/>
      <point x="92" y="546"/>
      <point x="169" y="616"/>
      <point x="283" y="616" type="curve" smooth="yes"/>
    </contour>
    <contour>
      <point x="283" y="582" type="line"/>
      <point x="194" y="582"/>
      <point x="132" y="527"/>
      <point x="132" y="436" type="curve" smooth="yes"/>
      <point x="132" y="345"/>
      <point x="194" y="289"/>
      <point x="283" y="289" type="curve" smooth="yes"/>
      <point x="371" y="289"/>
      <point x="435" y="356"/>
      <point x="435" y="436" type="curve" smooth="yes"/>
      <point x="435" y="527"/>
      <point x="371" y="582"/>
      <point x="283" y="582" type="curve" smooth="yes"/>
    </contour>
  </outline>
</glyph>
<glyph name="one.tf" format="2">
  <advance width="600"/>
  <outline>
    <contour>
      <point x="150" y="0" type="line"/>
      <point x="450" y="0" type="line"/>
      <point x="450" y="35" type="line"/>
      <point x="313" y="35" type="line"/>
      <point x="318" y="30" type="line"/>
      <point x="318" y="607" type="line"/>
      <point x="282" y="607" type="line"/>
      <point x="255" y="580"/>
      <point x="218" y="564"/>
      <point x="179" y="558" type="curve"/>
      <point x="179" y="519" type="line"/>
      <point x="224" y="522"/>
      <point x="273" y="546"/>
      <point x="303" y="587" type="curve"/>
      <point x="282" y="587" type="line"/>
      <point x="282" y="30" type="line"/>
      <point x="287" y="35" type="line"/>
      <point x="150" y="35" type="line"/>
    </contour>
  </outline>
</glyph>
<glyph name="percent.tf" format="2">
  <advance width="600"/>
  <outline>
    <contour>
      <point x="139" y="616" type="curve" smooth="yes"/>
      <point x="78" y="616"/>
      <point x="21" y="567"/>
      <point x="21" y="481" type="curve" smooth="yes"/>
      <point x="21" y="394"/>
      <point x="78" y="346"/>
      <point x="139" y="346" type="curve" smooth="yes"/>
      <point x="201" y="346"/>
      <point x="258" y="394"/>
      <point x="258" y="481" type="curve" smooth="yes"/>
      <point x="258" y="567"/>
      <point x="201" y="616"/>
    </contour>
    <contour>
      <point x="139" y="586" type="curve" smooth="yes"/>
      <point x="187" y="586"/>
      <point x="221" y="549"/>
      <point x="221" y="481" type="curve" smooth="yes"/>
      <point x="221" y="412"/>
      <point x="187" y="377"/>
      <point x="139" y="377" type="curve" smooth="yes"/>
      <point x="89" y="377"/>
      <point x="56" y="412"/>
      <point x="56" y="481" type="curve" smooth="yes"/>
      <point x="56" y="549"/>
      <point x="89" y="586"/>
    </contour>
    <contour>
      <point x="77" y="0" type="line"/>
      <point x="118" y="0" type="line"/>
      <point x="524" y="607" type="line"/>
      <point x="482" y="607" type="line"/>
    </contour>
    <contour>
      <point x="461" y="261" type="curve" smooth="yes"/>
      <point x="400" y="261"/>
      <point x="343" y="213"/>
      <point x="343" y="126" type="curve" smooth="yes"/>
      <point x="343" y="39"/>
      <point x="400" y="-9"/>
      <point x="461" y="-9" type="curve" smooth="yes"/>
      <point x="523" y="-9"/>
      <point x="580" y="39"/>
      <point x="580" y="126" type="curve" smooth="yes"/>
      <point x="580" y="213"/>
      <point x="523" y="261"/>
    </contour>
    <contour>
      <point x="461" y="231" type="curve" smooth="yes"/>
      <point x="509" y="231"/>
      <point x="543" y="194"/>
      <point x="543" y="126" type="curve" smooth="yes"/>
      <point x="543" y="57"/>
      <point x="509" y="22"/>
      <point x="461" y="22" type="curve" smooth="yes"/>
      <point x="411" y="22"/>
      <point x="378" y="57"/>
      <point x="378" y="126" type="curve" smooth="yes"/>
      <point x="378" y="194"/>
      <point x="411" y="231"/>
    </contour>
  </outline>
</glyph>
<glyph name="seven.tf" format="2">
  <advance width="600"/>
  <outline>
    <contour>
      <point x="93" y="607" type="line"/>
      <point x="93" y="573" type="line"/>
      <point x="448" y="573" type="line"/>
      <point x="143" y="0" type="line"/>
      <point x="191" y="0" type="line"/>
      <point x="492" y="577" type="line"/>
      <point x="492" y="607" type="line"/>
    </contour>
  </outline>
</glyph>
<glyph name="six.tf" format="2">
  <advance width="600"/>
  <outline>
    <contour>
      <point x="446" y="468" type="line"/>
      <point x="433" y="538"/>
      <point x="395" y="582"/>
      <point x="317" y="582" type="curve" smooth="yes"/>
      <point x="190" y="582"/>
      <point x="117" y="467"/>
      <point x="117" y="279" type="curve" smooth="yes"/>
      <point x="117" y="248"/>
      <point x="118" y="203"/>
      <point x="123" y="169" type="curve"/>
      <point x="124" y="311"/>
      <point x="209" y="358"/>
      <point x="301" y="358" type="curve" smooth="yes"/>
      <point x="405" y="358"/>
      <point x="492" y="281"/>
      <point x="492" y="171" type="curve" smooth="yes"/>
      <point x="492" y="62"/>
      <point x="416" y="-9"/>
      <point x="301" y="-9" type="curve" smooth="yes"/>
      <point x="163" y="-9"/>
      <point x="77" y="125"/>
      <point x="77" y="292" type="curve" smooth="yes"/>
      <point x="77" y="491"/>
      <point x="163" y="616"/>
      <point x="317" y="616" type="curve" smooth="yes"/>
      <point x="413" y="616"/>
      <point x="474" y="556"/>
      <point x="489" y="468" type="curve"/>
    </contour>
    <contour>
      <point x="301" y="318" type="line"/>
      <point x="213" y="318"/>
      <point x="150" y="252"/>
      <point x="150" y="171" type="curve" smooth="yes"/>
      <point x="150" y="80"/>
      <point x="213" y="26"/>
      <point x="301" y="26" type="curve" smooth="yes"/>
      <point x="390" y="26"/>
      <point x="452" y="80"/>
      <point x="452" y="171" type="curve" smooth="yes"/>
      <point x="452" y="262"/>
      <point x="390" y="318"/>
      <point x="301" y="318" type="curve" smooth="yes"/>
    </contour>
  </outline>
</glyph>
<glyph name="sterling.tf" format="2">
  <advance width="600"/>
  <outline>
    <contour>
      <point x="67" y="284" type="line"/>
      <point x="67" y="253" type="line"/>
      <point x="394" y="253" type="line"/>
      <point x="394" y="284" type="line"/>
    </contour>
    <contour>
      <point x="63" y="0" type="line"/>
      <point x="396" y="0" type="line" smooth="yes"/>
      <point x="492" y="0"/>
      <point x="525" y="49"/>
      <point x="536" y="122" type="curve"/>
      <point x="499" y="122" type="line"/>
      <point x="488" y="58"/>
      <point x="459" y="30"/>
      <point x="396" y="30" type="curve" smooth="yes"/>
      <point x="63" y="30" type="line"/>
    </contour>
    <contour>
      <point x="329" y="616" type="line"/>
      <point x="209" y="616"/>
      <point x="165" y="535"/>
      <point x="165" y="419" type="curve" smooth="yes"/>
      <point x="165" y="123" type="line" smooth="yes"/>
      <point x="165" y="60"/>
      <point x="140" y="30"/>
      <point x="86" y="30" type="curve"/>
      <point x="86" y="18" type="line"/>
      <point x="180" y="18"/>
      <point x="202" y="46"/>
      <point x="202" y="123" type="curve" smooth="yes"/>
      <point x="202" y="419" type="line" smooth="yes"/>
      <point x="202" y="533"/>
      <point x="250" y="582"/>
      <point x="329" y="582" type="curve" smooth="yes"/>
      <point x="383" y="582"/>
      <point x="431" y="555"/>
      <point x="444" y="492" type="curve"/>
      <point x="480" y="492" type="line"/>
      <point x="465" y="573"/>
      <point x="406" y="616"/>
      <point x="329" y="616" type="curve" smooth="yes"/>
    </contour>
  </outline>
</glyph>
<glyph name="three.prop" format="2">
  <advance width="533"/>
  <outline>
    <contour>
      <point x="244" y="516" type="line"/>
      <point x="156" y="516"/>
      <point x="78" y="481"/>
      <point x="60" y="380" type="curve"/>
      <point x="96" y="380" type="line"/>
      <point x="118" y="459"/>
      <point x="175" y="482"/>
      <point x="244" y="482" type="curve" smooth="yes"/>
      <point x="338" y="482"/>
      <point x="394" y="431"/>
      <point x="394" y="361" type="curve" smooth="yes"/>
      <point x="394" y="282"/>
      <point x="321" y="245"/>
      <point x="203" y="245" type="curve" smooth="yes"/>
      <point x="180" y="245" type="line"/>
      <point x="180" y="215" type="line"/>
      <point x="234" y="215" type="line" smooth="yes"/>
      <point x="371" y="215"/>
      <point x="420" y="139"/>
      <point x="420" y="64" type="curve" smooth="yes"/>
      <point x="420" y="-15"/>
      <point x="346" y="-74"/>
      <point x="242" y="-74" type="curve" smooth="yes"/>
      <point x="142" y="-74"/>
      <point x="73" y="-24"/>
      <point x="73" y="80" type="curve"/>
      <point x="36" y="80" type="line"/>
      <point x="36" y="-44"/>
      <point x="126" y="-108"/>
      <point x="242" y="-108" type="curve" smooth="yes"/>
      <point x="372" y="-108"/>
      <point x="460" y="-38"/>
      <point x="460" y="64" type="curve" smooth="yes"/>
      <point x="460" y="147"/>
      <point x="402" y="216"/>
      <point x="321" y="236" type="curve"/>
      <point x="392" y="260"/>
      <point x="434" y="295"/>
      <point x="434" y="361" type="curve" smooth="yes"/>
      <point x="434" y="453"/>
      <point x="354" y="516"/>
      <point x="244" y="516" type="curve" smooth="yes"/>
    </contour>
  </outline>
</glyph>
<glyph name="two.prop" format="2">
  <advance width="553"/>
  <outline>
    <contour>
      <point x="106" y="77" type="line"/>
      <point x="106" y="136"/>
      <point x="137" y="185"/>
      <point x="221" y="204" type="curve" smooth="yes"/>
      <point x="338" y="231" type="line" smooth="yes"/>
      <point x="423" y="250"/>
      <point x="471" y="290"/>
      <point x="471" y="368" type="curve" smooth="yes"/>
      <point x="471" y="442"/>
      <point x="394" y="516"/>
      <point x="282" y="516" type="curve" smooth="yes"/>
      <point x="158" y="516"/>
      <point x="90" y="459"/>
      <point x="80" y="375" type="curve"/>
      <point x="120" y="375" type="line"/>
      <point x="130" y="446"/>
      <point x="190" y="482"/>
      <point x="282" y="482" type="curve" smooth="yes"/>
      <point x="377" y="482"/>
      <point x="431" y="431"/>
      <point x="431" y="375" type="curve" smooth="yes"/>
      <point x="431" y="312"/>
      <point x="391" y="279"/>
      <point x="324" y="265" type="curve" smooth="yes"/>
      <point x="211" y="239" type="line" smooth="yes"/>
      <point x="117" y="219"/>
      <point x="69" y="171"/>
      <point x="69" y="69" type="curve" smooth="yes"/>
      <point x="69" y="0" type="line"/>
      <point x="464" y="0" type="line"/>
      <point x="464" y="35" type="line"/>
      <point x="106" y="35" type="line"/>
    </contour>
  </outline>
</glyph>
<glyph name="two.tf" format="2">
  <advance width="600"/>
  <outline>
    <contour>
      <point x="137" y="77" type="line"/>
      <point x="137" y="148"/>
      <point x="178" y="189"/>
      <point x="255" y="221" type="curve" smooth="yes"/>
      <point x="374" y="271" type="line" smooth="yes"/>
      <point x="443" y="300"/>
      <point x="502" y="352"/>
      <point x="502" y="447" type="curve" smooth="yes"/>
      <point x="502" y="543"/>
      <point x="425" y="616"/>
      <point x="313" y="616" type="curve" smooth="yes"/>
      <point x="189" y="616"/>
      <point x="121" y="559"/>
      <point x="111" y="475" type="curve"/>
      <point x="151" y="475" type="line"/>
      <point x="161" y="546"/>
      <point x="221" y="582"/>
      <point x="313" y="582" type="curve" smooth="yes"/>
      <point x="405" y="582"/>
      <point x="462" y="530"/>
      <point x="462" y="452" type="curve" smooth="yes"/>
      <point x="462" y="380"/>
      <point x="423" y="334"/>
      <point x="353" y="305" type="curve" smooth="yes"/>
      <point x="239" y="258" type="line" smooth="yes"/>
      <point x="163" y="227"/>
      <point x="100" y="183"/>
      <point x="100" y="74" type="curve" smooth="yes"/>
      <point x="100" y="0" type="line"/>
      <point x="495" y="0" type="line"/>
      <point x="495" y="35" type="line"/>
      <point x="137" y="35" type="line"/>
    </contour>
  </outline>
</glyph>
<glyph name="yen.tf" format="2">
  <advance width="600"/>
  <outline>
    <contour>
      <point x="282" y="0" type="line"/>
      <point x="321" y="0" type="line"/>
      <point x="321" y="248" type="line"/>
      <point x="542" y="607" type="line"/>
      <point x="498" y="607" type="line"/>
      <point x="293" y="275" type="line"/>
      <point x="310" y="275" type="line"/>
      <point x="103" y="607" type="line"/>
      <point x="58" y="607" type="line"/>
      <point x="282" y="248" type="line"/>
    </contour>
    <contour>
      <point x="138" y="117" type="line"/>
      <point x="465" y="117" type="line"/>
      <point x="465" y="148" type="line"/>
      <point x="138" y="148" type="line"/>
    </contour>
    <contour>
      <point x="138" y="208" type="line"/>
      <point x="465" y="208" type="line"/>
      <point x="465" y="239" type="line"/>
      <point x="138" y="239" type="line"/>
    </contour>
  </outline>
</glyph>
